<svg xmlns="http://www.w3.org/2000/svg" xml:space="preserve" style="fill-rule:evenodd;clip-rule:evenodd;stroke-miterlimit:10" viewBox="0 0 512 512"><path d="M1764.38 1331.2c-10.65-14.43-25.84-33.39-47.42-58.25-83.91-96.68-206.13-306.46-209.78-392.2-3.65-85.74-69.32-213.43-301-240.79-19.85-2.344-38.14-2.519-54.98-.879C971.511 656.585 956.28 880.75 956.28 880.75s8.21 249-199.75 362.1c-207.96 113.1-67.49 125.87-9.12 138.64 58.37 12.77-76.61 89.38-12.77 127.69s113.1-25.54 125.87 63.85c12.77 89.39 162.35 36.48 182.42 67.49 20.07 31.01 109.45 167.83 231.67 131.34 122.22-36.49 91.21-89.38 166-91.21 74.79-1.83 135-23.71 120.4-85.73-14.6-62.02 72-73.88 114-70.23 42 3.65 69.32-34.66 18.24-78.44-39.16-33.57 6.39-70.35 53.62-75 19.35-1.9 29.06-24.41 17.52-40.05Z" style="fill:#fff" transform="translate(-281.023 -281.0228) scale(.444556)"/><path d="M1764.38 1331.2c-10.65-14.43-25.84-33.39-47.42-58.25-83.91-96.68-206.13-306.46-209.78-392.2-3.65-85.74-69.32-213.43-301-240.79-19.85-2.344-38.14-2.519-54.98-.879C971.511 656.585 956.28 880.75 956.28 880.75s8.21 249-199.75 362.1c-207.96 113.1-67.49 125.87-9.12 138.64 58.37 12.77-76.61 89.38-12.77 127.69s113.1-25.54 125.87 63.85c12.77 89.39 162.35 36.48 182.42 67.49 20.07 31.01 109.45 167.83 231.67 131.34 122.22-36.49 91.21-89.38 166-91.21 74.79-1.83 135-23.71 120.4-85.73-14.6-62.02 72-73.88 114-70.23 42 3.65 69.32-34.66 18.24-78.44-39.16-33.57 6.39-70.35 53.62-75 19.35-1.9 29.06-24.41 17.52-40.05Zm-77.34-3.25c-11.1 5.13-21.16 11.33-29.6 18.21-21.63 17.63-33.9 40.01-36.81 62.44-2.4 18.46.34 38.83 13.56 58.74-28.84 3.15-60.1 11.16-82.91 25.7-37.7 24.04-60 60.95-47.21 115.28.1.42.19.92.27 1.43-3.62 1.78-11.02 5.22-16.63 6.67-14.29 3.7-30.91 5.33-48.54 5.76-51.74 1.27-73.8 17.64-95.66 39.69-14.74 14.88-28.61 36.92-85.64 53.95-39.93 11.92-73.7-7.3-99.92-29.2-34.25-28.62-57.35-64.64-65.92-77.88-9.04-13.96-23.42-25.83-44.73-32.19-17.16-5.12-44.12-5.9-73.524-5.92-12.302-.01-25.236-.09-37.484-1.58-4.148-.5-8.196-1.16-12.032-2.15-1.719-.45-4.265-1.46-5.849-2.12l-.003-.02c-5.53-38.71-18.13-60.2-30.696-73.43-13.57-14.28-29.231-22.13-47.211-25.72-11.21-2.23-23.85-2.42-37.762-1.71-3.685.19-7.677.69-11.914.89 5.158-7.54 10.359-15.27 13.557-20.33 9.97-15.74 15.045-30.8 16.203-42.88 1.629-16.97-2.326-31.98-11.061-45.18-8.241-12.46-22.303-26.07-49.614-32.04-4.606-1.01-10.906-2.49-17.811-4.16 12.165-8.3 26.549-17.36 42.373-25.97 221.618-120.53 230.218-375.041 230.298-411.119.82-8.567 5.61-49.835 24.9-92.581 18.88-41.859 52.62-86.947 117.2-93.239 13.01-1.266 27.12-1.059 42.45.751 186.72 22.051 246.49 116.093 249.43 185.196 1.31 30.794 14.11 75.329 35.9 125.192 44.68 102.23 126.35 231.66 188.14 302.86 5.12 5.9 9.86 11.44 14.25 16.66Z" style="fill:#0d0d0b" transform="translate(-281.023 -281.0228) scale(.444556)"/><path d="M1168.75 870.68c-2.15 7.883-5.04 15.246-8.47 21.922-13.56 26.394-35.69 42.055-55.32 36.708-24.59-6.7-35.88-43.79-25.21-82.92 10.67-39.13 39.18-65.3 63.74-58.58 16.9 4.626 27.55 23.622 29.07 47.765.22 3.463.25 7.032.09 10.68-.36 7.867-1.63 16.099-3.9 24.425ZM1311 929.31c-24.56 6.7-53.17-19.58-63.76-58.63-10.59-39.05.64-76.22 25.18-82.87 24.54-6.65 53.15 19.53 63.82 58.58 10.67 39.05-.65 76.22-25.24 82.92Z" style="stroke:#0d0d0b;stroke-width:25px" transform="translate(-281.023 -281.0228) scale(.444556)"/></svg>