<svg xmlns="http://www.w3.org/2000/svg" xml:space="preserve" style="fill-rule:evenodd;clip-rule:evenodd;stroke-linejoin:round;stroke-miterlimit:2" viewBox="0 0 512 512"><path d="M1835.38 1331.2c-10.65-14.43-25.84-33.39-47.42-58.25-83.91-96.68-206.13-306.46-209.78-392.2-3.65-85.74-69.32-213.43-301-240.79-231.68-27.36-249.91 240.79-249.91 240.79s8.21 249-199.75 362.1c-207.96 113.1-67.49 125.87-9.12 138.64 58.37 12.77-76.61 89.38-12.77 127.69s113.1-25.54 125.87 63.85c12.77 89.39 162.35 36.48 182.42 67.49 20.07 31.01 109.45 167.83 231.67 131.34 122.22-36.49 91.21-89.38 166-91.21 74.79-1.83 135-23.71 120.4-85.73-14.6-62.02 72-73.88 114-70.23 42 3.65 69.32-34.66 18.24-78.44-39.16-33.57 6.39-70.35 53.62-75 19.36-1.9 29.07-24.41 17.53-40.05Zm-595.63-460.52c-10.67 39.05-39.2 65.33-63.79 58.63-24.59-6.7-35.88-43.79-25.21-82.92 10.67-39.13 39.18-65.3 63.74-58.58 24.56 6.72 35.91 43.77 25.26 82.87ZM1382 929.31c-24.56 6.7-53.17-19.58-63.76-58.63-10.59-39.05.64-76.22 25.18-82.87 24.54-6.65 53.15 19.53 63.82 58.58 10.67 39.05-.65 76.22-25.24 82.92Z" style="fill:#fff;fill-rule:nonzero" transform="translate(-318.426 -286.541) scale(.449124)"/></svg>